# Blender v2.78 (sub 0) OBJ File: ''
# www.blender.org
mtllib conoray2.mtl
o Cone.002_0
v 6.000000 2.047992 1.815825
v 0.000000 2.000000 0.000000
v 6.000000 2.190456 1.671568
v 6.000000 2.833727 1.471051
v 6.000000 3.051359 1.492340
v 6.000000 2.639400 2.005503
v 6.000000 4.186943 0.000000
v 0.000000 2.000000 0.000000
v 6.000000 3.874516 0.406130
v 6.000000 3.731522 0.161728
v 6.000000 3.730728 -0.170897
v 6.000000 3.871714 -0.440175
v 6.000000 0.510830 0.703495
v 0.000000 2.000000 0.000000
v 6.000000 0.800878 1.114220
v 6.000000 0.859750 1.407531
v 6.000000 0.186943 1.172704
v 6.000000 0.197454 0.577570
v 6.000000 3.046803 -1.513833
v 0.000000 2.000000 0.000000
v 6.000000 2.843817 -1.474023
v 5.999999 2.196944 -1.663583
v 6.000000 2.031404 -1.800725
v 6.000000 2.675803 -1.994497
v 6.000000 0.801297 -1.101290
v 0.000000 2.000000 0.000000
v 6.000000 0.498016 -0.699450
v 6.000000 0.230727 -0.546082
v 6.000000 0.230727 -1.232668
v 6.000000 0.817514 -1.426744
vt 0.0282 0.0282
vt 0.1283 0.0282
vt 0.0282 0.1283
vt 0.1847 0.0282
vt 0.2848 0.0282
vt 0.1847 0.1283
vt 0.3412 0.0282
vt 0.4413 0.0282
vt 0.3412 0.1283
vt 0.4977 0.0282
vt 0.5978 0.0282
vt 0.4977 0.1283
vt 0.6541 0.0282
vt 0.7543 0.0282
vt 0.6541 0.1283
vt 0.8967 0.0642
vt 0.8621 0.1118
vt 0.8061 0.0936
vt 0.8061 0.0347
vt 0.8621 0.0165
vt 0.0282 0.1847
vt 0.1283 0.1847
vt 0.0282 0.2848
vt 0.0282 0.3412
vt 0.1283 0.3412
vt 0.0282 0.4413
vt 0.0282 0.4977
vt 0.1283 0.4977
vt 0.0282 0.5978
vt 0.0282 0.6541
vt 0.1283 0.6541
vt 0.0282 0.7543
vt 0.0282 0.8106
vt 0.1283 0.8106
vt 0.0282 0.9108
vt 0.2707 0.2207
vt 0.2361 0.2683
vt 0.1801 0.2501
vt 0.1801 0.1912
vt 0.2361 0.1730
vt 0.1847 0.3130
vt 0.2848 0.3130
vt 0.1847 0.4131
vt 0.1847 0.4695
vt 0.2848 0.4695
vt 0.1847 0.5696
vt 0.1847 0.6260
vt 0.2848 0.6260
vt 0.1847 0.7261
vt 0.1847 0.7825
vt 0.2848 0.7825
vt 0.1847 0.8826
vt 0.3412 0.3130
vt 0.4413 0.3130
vt 0.3412 0.4131
vt 0.3991 0.2207
vt 0.3645 0.2683
vt 0.3085 0.2501
vt 0.3085 0.1912
vt 0.3645 0.1730
vt 0.4977 0.3130
vt 0.5978 0.3130
vt 0.4977 0.4131
vt 0.6541 0.3130
vt 0.7543 0.3130
vt 0.6541 0.4131
vt 0.8106 0.3130
vt 0.9108 0.3130
vt 0.8106 0.4131
vt 0.3412 0.4695
vt 0.4413 0.4695
vt 0.3412 0.5696
vt 0.3412 0.6260
vt 0.4413 0.6260
vt 0.3412 0.7261
vt 0.5274 0.2207
vt 0.4928 0.2683
vt 0.4368 0.2501
vt 0.4368 0.1912
vt 0.4928 0.1730
vt 0.3412 0.7825
vt 0.4413 0.7825
vt 0.3412 0.8826
vt 0.4977 0.4695
vt 0.5978 0.4695
vt 0.4977 0.5696
vt 0.6541 0.4695
vt 0.7543 0.4695
vt 0.6541 0.5696
vt 0.8106 0.4695
vt 0.9108 0.4695
vt 0.8106 0.5696
vt 0.4977 0.6260
vt 0.5978 0.6260
vt 0.4977 0.7261
vt 0.6557 0.2207
vt 0.6211 0.2683
vt 0.5651 0.2501
vt 0.5651 0.1912
vt 0.6211 0.1730
vn 0.2133 -0.6951 -0.6865
vn 0.2655 -0.2869 -0.9204
vn 0.2246 0.0949 -0.9698
vn -0.2806 0.7485 0.6009
vn -0.2747 -0.2936 0.9156
vn 1.0000 0.0000 0.0000
vn -0.2775 0.7615 0.5858
vn 0.2292 -0.8401 0.4915
vn 0.2772 -0.9608 0.0023
vn 0.2355 -0.8610 -0.4508
vn -0.2841 0.7795 -0.5582
vn 0.2610 0.7885 -0.5569
vn 0.2265 0.9550 -0.1917
vn -0.2733 -0.3170 0.9082
vn -0.2862 -0.9580 -0.0169
vn 0.1974 0.3655 -0.9096
vn 0.2093 0.1882 0.9596
vn 0.2654 -0.2711 0.9252
vn 0.2283 -0.6211 0.7497
vn -0.2749 -0.2769 -0.9207
vn -0.2805 0.7598 -0.5865
vn 0.2607 0.7706 0.5816
vn 0.2202 0.4855 0.8461
vn -0.2828 -0.9592 -0.0000
vn -0.2764 -0.3018 -0.9124
vn 0.2043 0.9777 0.0487
usemtl None
s 1
f 1/1/1 2/2/1 3/3/1
f 3/4/2 2/5/2 4/6/2
f 4/7/3 2/8/3 5/9/3
f 5/10/4 2/11/4 6/12/4
f 6/13/5 2/14/5 1/15/5
f 1/16/6 3/17/6 4/18/6 5/19/6 6/20/6
f 7/21/7 8/22/7 9/23/7
f 9/24/8 8/25/8 10/26/8
f 10/27/9 8/28/9 11/29/9
f 11/30/10 8/31/10 12/32/10
f 12/33/11 8/34/11 7/35/11
f 7/36/6 9/37/6 10/38/6 11/39/6 12/40/6
f 13/41/12 14/42/12 15/43/12
f 15/44/13 14/45/13 16/46/13
f 16/47/14 14/48/14 17/49/14
f 17/50/15 14/51/15 18/52/15
f 18/53/16 14/54/16 13/55/16
f 13/56/6 15/57/6 16/58/6 17/59/6 18/60/6
f 19/61/17 20/62/17 21/63/17
f 21/64/18 20/65/18 22/66/18
f 22/67/19 20/68/19 23/69/19
f 23/70/20 20/71/20 24/72/20
f 24/73/21 20/74/21 19/75/21
f 19/76/6 21/77/6 22/78/6 23/79/6 24/80/6
f 25/81/22 26/82/22 27/83/22
f 27/84/23 26/85/23 28/86/23
f 28/87/24 26/88/24 29/89/24
f 29/90/25 26/91/25 30/92/25
f 30/93/26 26/94/26 25/95/26
f 25/96/6 27/97/6 28/98/6 29/99/6 30/100/6
