# Blender v2.78 (sub 0) OBJ File: 'disptorre.blend'
# www.blender.org
mtllib disptorre.mtl
o Icosphere
v -4.500000 0.000000 0.000000
v -2.300000 -0.506520 0.368004
v -2.300000 0.193470 0.595448
v -2.300000 0.626098 0.000000
v -2.300000 0.193470 -0.595448
v -2.300000 -0.506520 -0.368004
v 1.000000 -0.193470 0.595448
v 1.000000 0.506520 0.368004
v 1.000000 0.506520 -0.368004
v 1.000000 -0.193470 -0.595448
v 1.000000 -0.626098 0.000000
v 3.200000 0.000001 0.000000
vn -0.2244 -0.3011 0.9268
vn -0.2244 -0.9745 0.0000
vn -0.2244 0.7884 0.5728
vn -0.2244 0.7884 -0.5728
vn -0.2244 -0.3011 -0.9268
vn -0.0362 -0.9993 0.0000
vn -0.0362 -0.3088 0.9504
vn -0.0362 0.8085 0.5874
vn -0.0362 0.8085 -0.5874
vn -0.0362 -0.3088 -0.9504
vn 0.0362 -0.8085 0.5874
vn 0.0362 0.3088 0.9504
vn 0.0362 0.9993 0.0000
vn 0.0362 0.3088 -0.9504
vn 0.0362 -0.8085 -0.5874
vn 0.2244 -0.7884 0.5728
vn 0.2244 0.3011 0.9268
vn 0.2244 0.9745 0.0000
vn 0.2244 0.3011 -0.9268
vn 0.2244 -0.7884 -0.5728
usemtl None
s off
f 1//1 2//1 3//1
f 2//2 1//2 6//2
f 1//3 3//3 4//3
f 1//4 4//4 5//4
f 1//5 5//5 6//5
f 2//6 6//6 11//6
f 3//7 2//7 7//7
f 4//8 3//8 8//8
f 5//9 4//9 9//9
f 6//10 5//10 10//10
f 2//11 11//11 7//11
f 3//12 7//12 8//12
f 4//13 8//13 9//13
f 5//14 9//14 10//14
f 6//15 10//15 11//15
f 7//16 11//16 12//16
f 8//17 7//17 12//17
f 9//18 8//18 12//18
f 10//19 9//19 12//19
f 11//20 10//20 12//20
