# Blender v2.78 (sub 0) OBJ File: ''
# www.blender.org
mtllib holoscan2.mtl
o mesh_0
v 5.446362 0.394961 0.000000
v 0.672474 2.000000 0.000000
v 5.433717 0.208502 1.623797
v 5.433717 0.208502 -1.623798
vt 0.0861 0.0861
vt 0.3923 0.0861
vt 0.0861 0.3923
vt 0.5646 0.0861
vt 0.8708 0.0861
vt 0.5646 0.3923
vt 0.0861 0.5646
vt 0.3923 0.5646
vt 0.0861 0.8708
vt 0.5646 0.5646
vt 0.8708 0.5646
vt 0.5646 0.8708
vn 0.3167 0.9420 0.1106
vn -0.3522 -0.9359 -0.0000
vn 0.3167 0.9420 -0.1106
vn 0.9977 -0.0677 -0.0000
usemtl None
s off
f 1/1/1 2/2/1 3/3/1
f 3/4/2 2/5/2 4/6/2
f 4/7/3 2/8/3 1/9/3
f 1/10/4 3/11/4 4/12/4
