# Blender v2.78 (sub 0) OBJ File: ''
# www.blender.org
mtllib holoscan.mtl
o Cone_Cone.001
v -0.277668 0.900263 -1.789890
v 0.286144 0.028549 1.764559
v 0.821814 0.538620 -2.066883
v 0.287366 0.026918 1.763916
v -1.280445 0.259431 -1.801889
v 0.285264 0.026639 1.764181
vn 0.3475 0.9219 0.1713
vn 0.1164 -0.9865 -0.1155
vn 0.1546 -0.2599 0.9532
vn -0.5201 0.8067 0.2807
vn -0.1547 0.2599 -0.9532
usemtl None
s off
f 1//1 2//1 4//1 3//1
f 3//2 4//2 6//2 5//2
f 4//3 2//3 6//3
f 5//4 6//4 2//4 1//4
f 1//5 3//5 5//5
