# Blender v2.78 (sub 0) OBJ File: ''
# www.blender.org
mtllib segunda_sala.mtl
o Plane
v -188.000000 0.000000 39.000000
v -128.000000 0.000000 39.000000
v -188.000000 0.000000 27.000000
v -128.000000 0.000000 27.000000
vn 0.0000 1.0000 0.0000
usemtl None
s off
f 1//1 2//1 4//1 3//1
o Cube
v -188.999985 0.000000 26.000002
v -127.000015 0.000000 25.999998
v -127.000023 0.000000 27.999998
v -189.000000 0.000000 28.000000
v -188.999969 2.000000 26.000000
v -127.000000 2.000000 26.000000
v -127.000031 2.000000 27.999998
v -188.999985 2.000000 28.000002
vn 0.0000 -1.0000 0.0000
vn 0.0000 1.0000 0.0000
vn 0.0000 0.0000 -1.0000
vn 1.0000 0.0000 0.0000
vn 0.0000 -0.0000 1.0000
vn -1.0000 0.0000 -0.0000
usemtl Material
s off
f 5//2 6//2 7//2 8//2
f 9//3 12//3 11//3 10//3
f 5//4 9//4 10//4 6//4
f 6//5 10//5 11//5 7//5
f 7//6 11//6 12//6 8//6
f 9//7 5//7 8//7 12//7
o Cube.001
v -162.999985 0.000000 38.000000
v -127.000008 0.000000 38.000000
v -127.000015 0.000000 40.000000
v -163.000000 0.000000 40.000000
v -162.999985 2.000000 38.000000
v -127.000000 2.000000 38.000000
v -127.000015 2.000000 40.000000
v -163.000000 2.000000 40.000000
vn 0.0000 -1.0000 0.0000
vn 0.0000 1.0000 0.0000
vn 0.0000 0.0000 -1.0000
vn 1.0000 -0.0000 0.0000
vn 0.0000 0.0000 1.0000
vn -1.0000 0.0000 -0.0000
usemtl Material.001
s off
f 13//8 14//8 15//8 16//8
f 17//9 20//9 19//9 18//9
f 13//10 17//10 18//10 14//10
f 14//11 18//11 19//11 15//11
f 15//12 19//12 20//12 16//12
f 17//13 13//13 16//13 20//13
o Cube.002
v -189.000000 0.000000 28.000002
v -187.000000 0.000000 28.000002
v -187.000000 0.000000 38.000000
v -189.000000 0.000000 37.999996
v -189.000000 2.000000 28.000000
v -187.000000 2.000000 28.000006
v -187.000000 2.000000 38.000000
v -189.000000 2.000000 37.999996
vn 0.0000 -1.0000 0.0000
vn 0.0000 1.0000 0.0000
vn 0.0000 0.0000 -1.0000
vn 1.0000 0.0000 0.0000
vn -0.0000 0.0000 1.0000
vn -1.0000 0.0000 0.0000
usemtl Material.002
s off
f 21//14 22//14 23//14 24//14
f 25//15 28//15 27//15 26//15
f 21//16 25//16 26//16 22//16
f 22//17 26//17 27//17 23//17
f 23//18 27//18 28//18 24//18
f 25//19 21//19 24//19 28//19
o Cube.003
v -189.000000 0.000000 38.000000
v -171.000000 0.000000 38.000000
v -171.000000 0.000000 40.000000
v -189.000000 0.000000 40.000000
v -188.999985 2.000000 38.000000
v -171.000000 2.000000 38.000000
v -171.000000 2.000000 40.000000
v -189.000000 2.000000 40.000000
vn 0.0000 -1.0000 0.0000
vn 0.0000 1.0000 0.0000
vn 0.0000 0.0000 -1.0000
vn 1.0000 0.0000 0.0000
vn 0.0000 0.0000 1.0000
vn -1.0000 0.0000 -0.0000
usemtl Material.003
s off
f 29//20 30//20 31//20 32//20
f 33//21 36//21 35//21 34//21
f 29//22 33//22 34//22 30//22
f 30//23 34//23 35//23 31//23
f 31//24 35//24 36//24 32//24
f 33//25 29//25 32//25 36//25
o Cube.004
v -129.000000 0.000000 36.000000
v -127.000000 0.000000 36.000000
v -127.000000 0.000000 38.000000
v -129.000000 0.000000 38.000000
v -129.000000 2.000000 36.000000
v -127.000000 2.000000 36.000000
v -127.000000 2.000000 38.000000
v -129.000000 2.000000 38.000000
vn 0.0000 -1.0000 0.0000
vn 0.0000 1.0000 0.0000
vn 0.0000 0.0000 -1.0000
vn 1.0000 0.0000 0.0000
vn 0.0000 0.0000 1.0000
vn -1.0000 0.0000 0.0000
usemtl Material.004
s off
f 37//26 38//26 39//26 40//26
f 41//27 44//27 43//27 42//27
f 37//28 41//28 42//28 38//28
f 38//29 42//29 43//29 39//29
f 39//30 43//30 44//30 40//30
f 41//31 37//31 40//31 44//31
