# 3ds Max Wavefront OBJ Exporter v0.97b - (c)2007 guruware
# File Created: 11.04.2017 02:25:44

mtllib Tarjeta.mtl

#
# object ChamferBox001
#

v  -0.3005 0.0405 -0.5020
v  -0.3005 0.0405 0.4741
v  0.3636 0.0405 0.4741
v  0.3636 0.0405 -0.5020
v  -0.3005 0.0382 -0.5078
v  -0.3047 0.0382 -0.5070
v  -0.3077 0.0382 -0.5049
v  -0.3088 0.0382 -0.5020
v  -0.3088 0.0382 0.4741
v  -0.3077 0.0382 0.4770
v  -0.3047 0.0382 0.4791
v  -0.3005 0.0382 0.4799
v  0.3636 0.0382 0.4799
v  0.3678 0.0382 0.4791
v  0.3709 0.0382 0.4770
v  0.3720 0.0382 0.4741
v  0.3720 0.0382 -0.5020
v  0.3709 0.0382 -0.5049
v  0.3678 0.0382 -0.5070
v  0.3636 0.0382 -0.5078
v  -0.3005 0.0321 -0.5120
v  -0.3077 0.0321 -0.5107
v  -0.3130 0.0321 -0.5070
v  -0.3150 0.0321 -0.5020
v  -0.3150 0.0321 0.4741
v  -0.3130 0.0321 0.4791
v  -0.3077 0.0321 0.4828
v  -0.3005 0.0321 0.4841
v  0.3636 0.0321 0.4841
v  0.3709 0.0321 0.4828
v  0.3762 0.0321 0.4791
v  0.3781 0.0321 0.4741
v  0.3781 0.0321 -0.5020
v  0.3762 0.0321 -0.5070
v  0.3709 0.0321 -0.5107
v  0.3636 0.0321 -0.5120
v  -0.3005 0.0237 -0.5136
v  -0.3088 0.0237 -0.5120
v  -0.3150 0.0237 -0.5078
v  -0.3172 0.0237 -0.5020
v  -0.3172 0.0237 0.4741
v  -0.3150 0.0237 0.4799
v  -0.3088 0.0237 0.4841
v  -0.3005 0.0237 0.4857
v  0.3636 0.0237 0.4857
v  0.3720 0.0237 0.4841
v  0.3781 0.0237 0.4799
v  0.3804 0.0237 0.4741
v  0.3804 0.0237 -0.5020
v  0.3781 0.0237 -0.5078
v  0.3720 0.0237 -0.5120
v  0.3636 0.0237 -0.5136
v  -0.3005 0.0217 -0.5136
v  -0.3088 0.0217 -0.5120
v  -0.3150 0.0217 -0.5078
v  -0.3172 0.0217 -0.5020
v  -0.3172 0.0217 0.4741
v  -0.3150 0.0217 0.4799
v  -0.3088 0.0217 0.4841
v  -0.3005 0.0217 0.4857
v  0.3636 0.0217 0.4857
v  0.3720 0.0217 0.4841
v  0.3781 0.0217 0.4799
v  0.3804 0.0217 0.4741
v  0.3804 0.0217 -0.5020
v  0.3781 0.0217 -0.5078
v  0.3720 0.0217 -0.5120
v  0.3636 0.0217 -0.5136
v  -0.3005 0.0134 -0.5120
v  -0.3077 0.0134 -0.5107
v  -0.3130 0.0134 -0.5070
v  -0.3150 0.0134 -0.5020
v  -0.3150 0.0134 0.4741
v  -0.3130 0.0134 0.4791
v  -0.3077 0.0134 0.4828
v  -0.3005 0.0134 0.4841
v  0.3636 0.0134 0.4841
v  0.3709 0.0134 0.4828
v  0.3762 0.0134 0.4791
v  0.3781 0.0134 0.4741
v  0.3781 0.0134 -0.5020
v  0.3762 0.0134 -0.5070
v  0.3709 0.0134 -0.5107
v  0.3636 0.0134 -0.5120
v  -0.3005 0.0072 -0.5078
v  -0.3047 0.0072 -0.5070
v  -0.3077 0.0072 -0.5049
v  -0.3088 0.0072 -0.5020
v  -0.3088 0.0072 0.4741
v  -0.3077 0.0072 0.4770
v  -0.3047 0.0072 0.4791
v  -0.3005 0.0072 0.4799
v  0.3636 0.0072 0.4799
v  0.3678 0.0072 0.4791
v  0.3709 0.0072 0.4770
v  0.3720 0.0072 0.4741
v  0.3720 0.0072 -0.5020
v  0.3709 0.0072 -0.5049
v  0.3678 0.0072 -0.5070
v  0.3636 0.0072 -0.5078
v  -0.3005 0.0050 -0.5020
v  -0.3005 0.0050 0.4741
v  0.3636 0.0050 0.4741
v  0.3636 0.0050 -0.5020
# 104 vertices

vn -0.1087 0.9881 -0.1087
vn -0.1087 0.9881 0.1087
vn 0.1087 0.9881 0.1087
vn 0.1087 0.9881 -0.1087
vn -0.0698 0.8549 -0.5140
vn -0.2655 0.8474 -0.4598
vn -0.4598 0.8474 -0.2654
vn -0.5140 0.8549 -0.0698
vn -0.5140 0.8549 0.0698
vn -0.4598 0.8474 0.2654
vn -0.2655 0.8474 0.4598
vn -0.0698 0.8549 0.5140
vn 0.0698 0.8549 0.5140
vn 0.2655 0.8474 0.4598
vn 0.4598 0.8474 0.2654
vn 0.5140 0.8549 0.0698
vn 0.5140 0.8549 -0.0698
vn 0.4598 0.8474 -0.2654
vn 0.2655 0.8474 -0.4598
vn 0.0698 0.8549 -0.5140
vn -0.1129 0.4883 -0.8653
vn -0.4380 0.4823 -0.7586
vn -0.7586 0.4823 -0.4380
vn -0.8653 0.4883 -0.1129
vn -0.8653 0.4883 0.1129
vn -0.7586 0.4823 0.4380
vn -0.4380 0.4823 0.7586
vn -0.1129 0.4883 0.8653
vn 0.1129 0.4883 0.8653
vn 0.4380 0.4823 0.7586
vn 0.7586 0.4823 0.4380
vn 0.8653 0.4883 0.1129
vn 0.8653 0.4883 -0.1129
vn 0.7586 0.4823 -0.4380
vn 0.4380 0.4823 -0.7586
vn 0.1129 0.4883 -0.8653
vn -0.1282 0.1281 -0.9834
vn -0.4959 0.1278 -0.8589
vn -0.8589 0.1278 -0.4959
vn -0.9834 0.1281 -0.1281
vn -0.9834 0.1281 0.1281
vn -0.8589 0.1278 0.4959
vn -0.4959 0.1278 0.8589
vn -0.1281 0.1281 0.9834
vn 0.1282 0.1281 0.9834
vn 0.4959 0.1278 0.8589
vn 0.8589 0.1278 0.4959
vn 0.9834 0.1281 0.1281
vn 0.9834 0.1281 -0.1281
vn 0.8589 0.1278 -0.4959
vn 0.4959 0.1278 -0.8589
vn 0.1281 0.1281 -0.9834
vn -0.1281 -0.1281 -0.9834
vn -0.4959 -0.1278 -0.8589
vn -0.8589 -0.1278 -0.4959
vn -0.9834 -0.1281 -0.1281
vn -0.9834 -0.1281 0.1281
vn -0.8589 -0.1278 0.4959
vn -0.4959 -0.1278 0.8589
vn -0.1282 -0.1281 0.9834
vn 0.1281 -0.1281 0.9834
vn 0.4959 -0.1278 0.8589
vn 0.8589 -0.1278 0.4959
vn 0.9834 -0.1281 0.1281
vn 0.9834 -0.1281 -0.1281
vn 0.8589 -0.1278 -0.4959
vn 0.4959 -0.1278 -0.8589
vn 0.1282 -0.1281 -0.9834
vn -0.1129 -0.4883 -0.8653
vn -0.4380 -0.4823 -0.7586
vn -0.7586 -0.4823 -0.4380
vn -0.8653 -0.4883 -0.1129
vn -0.8653 -0.4883 0.1129
vn -0.7586 -0.4823 0.4380
vn -0.4380 -0.4823 0.7586
vn -0.1129 -0.4883 0.8653
vn 0.1129 -0.4883 0.8653
vn 0.4380 -0.4823 0.7586
vn 0.7586 -0.4823 0.4380
vn 0.8653 -0.4883 0.1129
vn 0.8653 -0.4883 -0.1129
vn 0.7586 -0.4823 -0.4380
vn 0.4380 -0.4823 -0.7586
vn 0.1129 -0.4883 -0.8653
vn -0.0698 -0.8549 -0.5140
vn -0.2655 -0.8474 -0.4598
vn -0.4598 -0.8474 -0.2654
vn -0.5140 -0.8549 -0.0698
vn -0.5140 -0.8549 0.0698
vn -0.4598 -0.8474 0.2654
vn -0.2655 -0.8474 0.4598
vn -0.0698 -0.8549 0.5140
vn 0.0698 -0.8549 0.5140
vn 0.2655 -0.8474 0.4598
vn 0.4598 -0.8474 0.2654
vn 0.5140 -0.8549 0.0698
vn 0.5140 -0.8549 -0.0698
vn 0.4598 -0.8474 -0.2654
vn 0.2655 -0.8474 -0.4598
vn 0.0698 -0.8549 -0.5140
vn -0.1087 -0.9881 -0.1087
vn -0.1087 -0.9881 0.1087
vn 0.1087 -0.9881 0.1087
vn 0.1087 -0.9881 -0.1087
# 104 vertex normals

vt 0.0240 0.9884 0.0000
vt 0.0240 0.0116 0.0000
vt 0.9760 0.0116 0.0000
vt 0.9760 0.9884 0.0000
vt 0.0240 0.9942 0.0000
vt 0.0180 0.9934 0.0000
vt 0.0136 0.9913 0.0000
vt 0.0120 0.9884 0.0000
vt 0.0120 0.0116 0.0000
vt 0.0136 0.0087 0.0000
vt 0.0180 0.0066 0.0000
vt 0.0240 0.0058 0.0000
vt 0.9760 0.0058 0.0000
vt 0.9820 0.0066 0.0000
vt 0.9864 0.0087 0.0000
vt 0.9880 0.0116 0.0000
vt 0.9880 0.9884 0.0000
vt 0.9864 0.9913 0.0000
vt 0.9820 0.9934 0.0000
vt 0.9760 0.9942 0.0000
vt 0.0240 0.9984 0.0000
vt 0.0136 0.9971 0.0000
vt 0.0060 0.9934 0.0000
vt 0.0032 0.9884 0.0000
vt 0.0032 0.0116 0.0000
vt 0.0060 0.0066 0.0000
vt 0.0136 0.0029 0.0000
vt 0.0240 0.0016 0.0000
vt 0.9760 0.0016 0.0000
vt 0.9864 0.0029 0.0000
vt 0.9940 0.0066 0.0000
vt 0.9968 0.0116 0.0000
vt 0.9968 0.9884 0.0000
vt 0.9940 0.9934 0.0000
vt 0.9864 0.9971 0.0000
vt 0.9760 0.9984 0.0000
vt 0.0240 1.0000 0.0000
vt 0.0120 0.9984 0.0000
vt 0.0032 0.9942 0.0000
vt 0.0000 0.9884 0.0000
vt 0.0000 0.0116 0.0000
vt 0.0032 0.0058 0.0000
vt 0.0120 0.0016 0.0000
vt 0.0240 0.0000 0.0000
vt 0.9760 0.0000 0.0000
vt 0.9880 0.0016 0.0000
vt 0.9968 0.0058 0.0000
vt 1.0000 0.0116 0.0000
vt 1.0000 0.9884 0.0000
vt 0.9968 0.9942 0.0000
vt 0.9880 0.9984 0.0000
vt 0.9760 1.0000 0.0000
vt 0.0000 1.0000 0.0000
vt 0.0000 0.0000 0.0000
vt 0.0020 0.0000 0.0000
vt 0.0020 1.0000 0.0000
vt 0.0040 0.0000 0.0000
vt 0.0040 1.0000 0.0000
vt 0.0060 0.0000 0.0000
vt 0.0060 1.0000 0.0000
vt 0.3325 0.0000 0.0000
vt 0.3325 1.0000 0.0000
vt 0.3345 0.0000 0.0000
vt 0.3345 1.0000 0.0000
vt 0.3365 0.0000 0.0000
vt 0.3365 1.0000 0.0000
vt 0.3385 0.0000 0.0000
vt 0.3385 1.0000 0.0000
vt 0.4923 0.0000 0.0000
vt 0.4923 1.0000 0.0000
vt 0.4943 0.0000 0.0000
vt 0.4943 1.0000 0.0000
vt 0.4963 0.0000 0.0000
vt 0.4963 1.0000 0.0000
vt 0.4983 0.0000 0.0000
vt 0.4983 1.0000 0.0000
vt 0.8248 0.0000 0.0000
vt 0.8248 1.0000 0.0000
vt 0.8268 0.0000 0.0000
vt 0.8268 1.0000 0.0000
vt 0.8288 0.0000 0.0000
vt 0.8288 1.0000 0.0000
vt 0.8308 0.0000 0.0000
vt 0.8308 1.0000 0.0000
vt 1.0000 0.0000 0.0000
vt 1.0000 1.0000 0.0000
# 86 texture coords

g ChamferBox001
usemtl wire_177027088
s 1
f 1/1/1 2/2/2 3/3/3 4/4/4 
f 1/1/1 5/5/5 6/6/6 
f 1/1/1 6/6/6 7/7/7 
f 1/1/1 7/7/7 8/8/8 
f 1/1/1 8/8/8 9/9/9 2/2/2 
f 2/2/2 9/9/9 10/10/10 
f 2/2/2 10/10/10 11/11/11 
f 2/2/2 11/11/11 12/12/12 
f 2/2/2 12/12/12 13/13/13 3/3/3 
f 3/3/3 13/13/13 14/14/14 
f 3/3/3 14/14/14 15/15/15 
f 3/3/3 15/15/15 16/16/16 
f 3/3/3 16/16/16 17/17/17 4/4/4 
f 4/4/4 17/17/17 18/18/18 
f 4/4/4 18/18/18 19/19/19 
f 4/4/4 19/19/19 20/20/20 
f 4/4/4 20/20/20 5/5/5 1/1/1 
f 5/5/5 21/21/21 22/22/22 6/6/6 
f 6/6/6 22/22/22 23/23/23 7/7/7 
f 7/7/7 23/23/23 24/24/24 8/8/8 
f 8/8/8 24/24/24 25/25/25 9/9/9 
f 9/9/9 25/25/25 26/26/26 10/10/10 
f 10/10/10 26/26/26 27/27/27 11/11/11 
f 11/11/11 27/27/27 28/28/28 12/12/12 
f 12/12/12 28/28/28 29/29/29 13/13/13 
f 13/13/13 29/29/29 30/30/30 14/14/14 
f 14/14/14 30/30/30 31/31/31 15/15/15 
f 15/15/15 31/31/31 32/32/32 16/16/16 
f 16/16/16 32/32/32 33/33/33 17/17/17 
f 17/17/17 33/33/33 34/34/34 18/18/18 
f 18/18/18 34/34/34 35/35/35 19/19/19 
f 19/19/19 35/35/35 36/36/36 20/20/20 
f 20/20/20 36/36/36 21/21/21 5/5/5 
f 21/21/21 37/37/37 38/38/38 22/22/22 
f 22/22/22 38/38/38 39/39/39 23/23/23 
f 23/23/23 39/39/39 40/40/40 24/24/24 
f 24/24/24 40/40/40 41/41/41 25/25/25 
f 25/25/25 41/41/41 42/42/42 26/26/26 
f 26/26/26 42/42/42 43/43/43 27/27/27 
f 27/27/27 43/43/43 44/44/44 28/28/28 
f 28/28/28 44/44/44 45/45/45 29/29/29 
f 29/29/29 45/45/45 46/46/46 30/30/30 
f 30/30/30 46/46/46 47/47/47 31/31/31 
f 31/31/31 47/47/47 48/48/48 32/32/32 
f 32/32/32 48/48/48 49/49/49 33/33/33 
f 33/33/33 49/49/49 50/50/50 34/34/34 
f 34/34/34 50/50/50 51/51/51 35/35/35 
f 35/35/35 51/51/51 52/52/52 36/36/36 
f 36/36/36 52/52/52 37/37/37 21/21/21 
f 37/53/37 53/54/53 54/55/54 38/56/38 
f 38/56/38 54/55/54 55/57/55 39/58/39 
f 39/58/39 55/57/55 56/59/56 40/60/40 
f 40/60/40 56/59/56 57/61/57 41/62/41 
f 41/62/41 57/61/57 58/63/58 42/64/42 
f 42/64/42 58/63/58 59/65/59 43/66/43 
f 43/66/43 59/65/59 60/67/60 44/68/44 
f 44/68/44 60/67/60 61/69/61 45/70/45 
f 45/70/45 61/69/61 62/71/62 46/72/46 
f 46/72/46 62/71/62 63/73/63 47/74/47 
f 47/74/47 63/73/63 64/75/64 48/76/48 
f 48/76/48 64/75/64 65/77/65 49/78/49 
f 49/78/49 65/77/65 66/79/66 50/80/50 
f 50/80/50 66/79/66 67/81/67 51/82/51 
f 51/82/51 67/81/67 68/83/68 52/84/52 
f 52/84/52 68/83/68 53/85/53 37/86/37 
f 53/44/53 69/28/69 70/27/70 54/43/54 
f 54/43/54 70/27/70 71/26/71 55/42/55 
f 55/42/55 71/26/71 72/25/72 56/41/56 
f 56/41/56 72/25/72 73/24/73 57/40/57 
f 57/40/57 73/24/73 74/23/74 58/39/58 
f 58/39/58 74/23/74 75/22/75 59/38/59 
f 59/38/59 75/22/75 76/21/76 60/37/60 
f 60/37/60 76/21/76 77/36/77 61/52/61 
f 61/52/61 77/36/77 78/35/78 62/51/62 
f 62/51/62 78/35/78 79/34/79 63/50/63 
f 63/50/63 79/34/79 80/33/80 64/49/64 
f 64/49/64 80/33/80 81/32/81 65/48/65 
f 65/48/65 81/32/81 82/31/82 66/47/66 
f 66/47/66 82/31/82 83/30/83 67/46/67 
f 67/46/67 83/30/83 84/29/84 68/45/68 
f 68/45/68 84/29/84 69/28/69 53/44/53 
f 69/28/69 85/12/85 86/11/86 70/27/70 
f 70/27/70 86/11/86 87/10/87 71/26/71 
f 71/26/71 87/10/87 88/9/88 72/25/72 
f 72/25/72 88/9/88 89/8/89 73/24/73 
f 73/24/73 89/8/89 90/7/90 74/23/74 
f 74/23/74 90/7/90 91/6/91 75/22/75 
f 75/22/75 91/6/91 92/5/92 76/21/76 
f 76/21/76 92/5/92 93/20/93 77/36/77 
f 77/36/77 93/20/93 94/19/94 78/35/78 
f 78/35/78 94/19/94 95/18/95 79/34/79 
f 79/34/79 95/18/95 96/17/96 80/33/80 
f 80/33/80 96/17/96 97/16/97 81/32/81 
f 81/32/81 97/16/97 98/15/98 82/31/82 
f 82/31/82 98/15/98 99/14/99 83/30/83 
f 83/30/83 99/14/99 100/13/100 84/29/84 
f 84/29/84 100/13/100 85/12/85 69/28/69 
f 85/12/85 101/2/101 86/11/86 
f 86/11/86 101/2/101 87/10/87 
f 87/10/87 101/2/101 88/9/88 
f 88/9/88 101/2/101 102/1/102 89/8/89 
f 89/8/89 102/1/102 90/7/90 
f 90/7/90 102/1/102 91/6/91 
f 91/6/91 102/1/102 92/5/92 
f 92/5/92 102/1/102 103/4/103 93/20/93 
f 93/20/93 103/4/103 94/19/94 
f 94/19/94 103/4/103 95/18/95 
f 95/18/95 103/4/103 96/17/96 
f 96/17/96 103/4/103 104/3/104 97/16/97 
f 97/16/97 104/3/104 98/15/98 
f 98/15/98 104/3/104 99/14/99 
f 99/14/99 104/3/104 100/13/100 
f 100/13/100 104/3/104 101/2/101 85/12/85 
f 104/3/104 103/4/103 102/1/102 101/2/101 
# 90 polygons - 24 triangles

