# Blender v2.78 (sub 0) OBJ File: ''
# www.blender.org
mtllib disptorre.mtl
o Icosphere_0
v -4.500000 0.000000 0.000000
v -2.300000 -0.505632 0.367727
v -2.300000 0.193130 0.595000
v -2.300000 -0.505632 -0.367727
v -2.300000 0.625000 0.000000
v -2.300000 0.193131 -0.595000
v 1.000000 -0.625000 0.000000
v 1.000000 -0.193131 0.595000
v 1.000000 0.505632 0.367728
v 1.000000 0.505632 -0.367727
v 1.000000 -0.193131 -0.594999
v 3.200000 0.000001 0.000001
vt 0.0345 0.0345
vt 0.1574 0.0345
vt 0.0345 0.1574
vt 0.2265 0.0345
vt 0.3493 0.0345
vt 0.2265 0.1574
vt 0.4184 0.0345
vt 0.5413 0.0345
vt 0.4184 0.1574
vt 0.6104 0.0345
vt 0.7332 0.0345
vt 0.6104 0.1574
vt 0.8023 0.0345
vt 0.9251 0.0345
vt 0.8023 0.1574
vt 0.0345 0.2265
vt 0.1574 0.2265
vt 0.0345 0.3493
vt 0.0345 0.4184
vt 0.1574 0.4184
vt 0.0345 0.5413
vt 0.0345 0.6104
vt 0.1574 0.6104
vt 0.0345 0.7332
vt 0.0345 0.8023
vt 0.1574 0.8023
vt 0.0345 0.9251
vt 0.2265 0.2265
vt 0.3493 0.2265
vt 0.2265 0.3493
vt 0.4184 0.2265
vt 0.5413 0.2265
vt 0.4184 0.3493
vt 0.6104 0.2265
vt 0.7332 0.2265
vt 0.6104 0.3493
vt 0.8023 0.2265
vt 0.9251 0.2265
vt 0.8023 0.3493
vt 0.2265 0.4184
vt 0.3493 0.4184
vt 0.2265 0.5413
vt 0.2265 0.6104
vt 0.3493 0.6104
vt 0.2265 0.7332
vt 0.2265 0.8023
vt 0.3493 0.8023
vt 0.2265 0.9251
vt 0.4184 0.4184
vt 0.5413 0.4184
vt 0.4184 0.5413
vt 0.6104 0.4184
vt 0.7332 0.4184
vt 0.6104 0.5413
vt 0.8023 0.4184
vt 0.9251 0.4184
vt 0.8023 0.5413
vt 0.4184 0.6104
vt 0.5413 0.6104
vt 0.4184 0.7332
vn -0.2242 -0.3014 0.9268
vn -0.2240 -0.9746 -0.0000
vn -0.2241 0.7887 0.5725
vn -0.2241 0.7887 -0.5725
vn -0.2242 -0.3014 -0.9268
vn -0.0361 -0.9993 -0.0000
vn -0.0362 -0.3091 0.9503
vn -0.0362 0.8088 0.5870
vn -0.0362 0.8088 -0.5870
vn -0.0362 -0.3091 -0.9503
vn 0.0362 -0.8088 0.5870
vn 0.0362 0.3091 0.9503
vn 0.0361 0.9993 0.0000
vn 0.0362 0.3091 -0.9503
vn 0.0362 -0.8088 -0.5870
vn 0.2241 -0.7887 0.5725
vn 0.2242 0.3014 0.9268
vn 0.2240 0.9746 0.0000
vn 0.2242 0.3014 -0.9268
vn 0.2241 -0.7887 -0.5725
usemtl None
s off
f 1/1/1 2/2/1 3/3/1
f 2/4/2 1/5/2 4/6/2
f 1/7/3 3/8/3 5/9/3
f 1/10/4 5/11/4 6/12/4
f 1/13/5 6/14/5 4/15/5
f 2/16/6 4/17/6 7/18/6
f 3/19/7 2/20/7 8/21/7
f 5/22/8 3/23/8 9/24/8
f 6/25/9 5/26/9 10/27/9
f 4/28/10 6/29/10 11/30/10
f 2/31/11 7/32/11 8/33/11
f 3/34/12 8/35/12 9/36/12
f 5/37/13 9/38/13 10/39/13
f 6/40/14 10/41/14 11/42/14
f 4/43/15 11/44/15 7/45/15
f 8/46/16 7/47/16 12/48/16
f 9/49/17 8/50/17 12/51/17
f 10/52/18 9/53/18 12/54/18
f 11/55/19 10/56/19 12/57/19
f 7/58/20 11/59/20 12/60/20
