# Blender v2.78 (sub 0) OBJ File: ''
# www.blender.org
mtllib exclamation.mtl
o Cube.001
v 0.425000 0.310642 -0.425000
v 0.425000 0.310642 0.425000
v -0.425000 0.310642 0.425000
v -0.425000 0.310642 -0.425000
v 0.425000 1.160642 -0.425000
v 0.425000 1.160642 0.425000
v -0.425000 1.160642 0.425000
v -0.425000 1.160642 -0.425000
v 0.500000 2.000000 -0.375000
v 0.500000 2.000000 0.375000
v -0.500000 2.000000 0.375000
v -0.500000 2.000000 -0.375000
v 0.500000 4.500000 -0.625000
v 0.500000 4.500000 0.625000
v -0.500000 4.500000 0.625000
v -0.500000 4.500000 -0.625000
vn 0.0000 -1.0000 -0.0000
vn 0.0000 1.0000 0.0000
vn 1.0000 0.0000 0.0000
vn -0.0000 -0.0995 0.9950
vn -1.0000 -0.0000 -0.0000
vn 0.0000 -0.0995 -0.9950
vn -0.0000 -0.0000 1.0000
vn 0.0000 0.0000 -1.0000
usemtl Material.001
s off
f 9//1 10//1 11//1 12//1
f 13//2 16//2 15//2 14//2
f 9//3 13//3 14//3 10//3
f 10//4 14//4 15//4 11//4
f 11//5 15//5 16//5 12//5
f 13//6 9//6 12//6 16//6
usemtl Material
f 1//1 2//1 3//1 4//1
f 5//2 8//2 7//2 6//2
f 1//3 5//3 6//3 2//3
f 2//7 6//7 7//7 3//7
f 3//5 7//5 8//5 4//5
f 5//8 1//8 4//8 8//8
