# Blender v2.78 (sub 0) OBJ File: 'primera_sala.blend'
# www.blender.org
mtllib primera_sala.mtl
o Plane
v -180.500000 0.000000 71.000000
v -157.500000 0.000000 71.000000
v -180.500000 0.000000 40.000000
v -157.500000 0.000000 40.000000
vn 0.0000 1.0000 0.0000
usemtl None
s off
f 1//1 2//1 4//1 3//1
o Cube
v -179.000000 0.000000 40.000008
v -179.000000 0.000000 70.999992
v -181.000000 0.000000 70.999992
v -181.000000 0.000000 40.000000
v -179.000000 2.000000 40.000015
v -179.000000 2.000000 71.000000
v -181.000000 2.000000 70.999985
v -181.000000 2.000000 40.000008
vn 0.0000 -1.0000 0.0000
vn 0.0000 1.0000 0.0000
vn 1.0000 0.0000 0.0000
vn -0.0000 0.0000 1.0000
vn -1.0000 -0.0000 0.0000
vn 0.0000 0.0000 -1.0000
usemtl Material
s off
f 5//2 6//2 7//2 8//2
f 9//3 12//3 11//3 10//3
f 5//4 9//4 10//4 6//4
f 6//5 10//5 11//5 7//5
f 7//6 11//6 12//6 8//6
f 9//7 5//7 8//7 12//7
o Cube.001
v -158.000000 0.000000 69.000000
v -158.000000 0.000000 71.000000
v -180.000000 0.000000 71.000000
v -179.999985 0.000000 69.000000
v -158.000000 2.000000 69.000000
v -158.000015 2.000000 71.000000
v -180.000000 2.000000 71.000000
v -180.000000 2.000000 69.000000
vn 0.0000 -1.0000 0.0000
vn 0.0000 1.0000 0.0000
vn 1.0000 0.0000 0.0000
vn 0.0000 0.0000 1.0000
vn -1.0000 0.0000 -0.0000
vn 0.0000 0.0000 -1.0000
usemtl Material.001
s off
f 13//8 14//8 15//8 16//8
f 17//9 20//9 19//9 18//9
f 13//10 17//10 18//10 14//10
f 14//11 18//11 19//11 15//11
f 15//12 19//12 20//12 16//12
f 17//13 13//13 16//13 20//13
o Cube.002
v -156.000000 0.000000 40.000008
v -156.000000 0.000000 70.999992
v -158.000000 0.000000 70.999992
v -158.000000 0.000000 40.000000
v -156.000000 2.000000 40.000015
v -156.000000 2.000000 71.000000
v -158.000000 2.000000 70.999985
v -158.000000 2.000000 40.000008
vn 0.0000 -1.0000 0.0000
vn 0.0000 1.0000 0.0000
vn 1.0000 -0.0000 0.0000
vn -0.0000 0.0000 1.0000
vn -1.0000 0.0000 0.0000
vn 0.0000 0.0000 -1.0000
usemtl Material.002
s off
f 21//14 22//14 23//14 24//14
f 25//15 28//15 27//15 26//15
f 21//16 25//16 26//16 22//16
f 22//17 26//17 27//17 23//17
f 23//18 27//18 28//18 24//18
f 25//19 21//19 24//19 28//19
